<svg xmlns="http://www.w3.org/2000/svg" width="32" height="30" fill="none"><path fill="#fff" d="M13.263 5.553c.322-.033.654 0 .967.08.927.23 1.556.8 2.034 1.596.38-.04.763-.017 1.135.07a3.14 3.14 0 0 1 1.907 1.377 2.94 2.94 0 0 1 .355 2.288c-.265 1.002-.902 1.524-1.769 2.024.024.616.015 1.235.017 1.85 0 .39.026.796-.012 1.182a1 1 0 0 1-.134.44.8.8 0 0 1-.403.134c-.397.048-.828.016-1.228.015l-2.359-.008c-.839.062-1.727.003-2.572.004-.562 0-1.194.066-1.75.003-.197-.022-.282-.152-.39-.298-.07-1.105-.01-2.247-.01-3.356-.462-.236-.855-.526-1.177-.933a2.9 2.9 0 0 1-.6-2.165 3.12 3.12 0 0 1 1.227-2.042 3.02 3.02 0 0 1 2.247-.573c.113-.196.226-.392.366-.57.54-.689 1.292-1.01 2.149-1.118m.045 1.358c-.526.103-.98.291-1.298.746-.177.255-.34.988-.561 1.1-.294.035-.6-.1-.885-.162-.57-.124-1.216.102-1.57.56-.29.378-.427.898-.35 1.366.071.423.33.778.685 1.021.386.265.817.317 1.084.733.05.963.014 1.943.015 2.908a298 298 0 0 1 3.372-.007l2.746-.006c0-.489-.106-2.922.123-3.16.107-.113.353-.181.498-.237.654-.255 1.133-.696 1.192-1.421.04-.48-.116-.91-.439-1.267a1.58 1.58 0 0 0-1.117-.524c-.387-.022-1.183.343-1.427.071-.118-.132-.165-.36-.226-.526-.247-.685-.765-1.082-1.493-1.177a2.3 2.3 0 0 0-.349-.018M26.23 1.311c.244-.017.536-.014.728.16.18.164.188.426.128.644-.144.528-.608 1.16-.886 1.64-.447.769-.863 1.558-1.296 2.335-.268.48-.593.972-.807 1.475a1.2 1.2 0 0 0-.112.503c.007.152.06.266.178.366.166.142.385.252.61.222.15-.02.27-.098.363-.213.318-.395.506-.945.738-1.392l1.6-3.089c.19-.369.357-.822.622-1.141.14-.17.271-.25.496-.268.177-.015.35.03.486.146a.62.62 0 0 1 .206.562c-.061.397-.415.878-.604 1.24L27.228 7.35c-.259.514-.563 1.039-.772 1.574-.048.125-.096.264-.078.4.02.158.139.297.267.386.143.1.338.168.514.129.203-.045.345-.191.458-.354.259-.37.43-.856.62-1.265l1.24-2.63c.235-.498.448-1.084.76-1.538.111-.163.232-.293.438-.324.209-.032.42.055.578.186.132.109.23.237.235.41.016.448-.805 2-1.028 2.498l-.88 1.965c-.43.969-.8 1.94-1.527 2.741-.716.79-1.532 1.124-2.516 1.476-.207.075-.525.148-.701.274-.348.248-.59.708-.795 1.07-.157.28-.357.582-.455.887-.145.449-.049 1.821-.049 2.363l-.001 6.996.003 2.139c.001.419.027.857-.02 1.273a.73.73 0 0 1-.19.432c-.341.33-1.597.214-2.079.211l-3.285-.004c.19-.502.423-.996.67-1.473.426-.044.864-.025 1.293-.026l2.12.001v-9.142c-.275.65-.624 1.286-.94 1.918a351 351 0 0 0-1.668 3.367 298 298 0 0 1-2.023 4.092c-.286.568-.54 1.166-.866 1.713a1.65 1.65 0 0 1-.512.564c-.3.192-.665.26-1.015.19a1.27 1.27 0 0 1-.825-.577 1.18 1.18 0 0 1-.135-.991c.169-.562.524-1.104.805-1.618l1.336-2.445c1.618-2.962 3.25-5.922 4.814-8.912.37-.704 1.205-2.04 1.406-2.703.219-.723-.241-1.588-.376-2.298a4.2 4.2 0 0 1 .35-2.665c.214-.421.471-.824.71-1.232l1.233-2.13.996-1.727c.197-.34.384-.707.622-1.02a.9.9 0 0 1 .271-.22"/><path fill="#fff" d="M3.833.031c1.142-.06 2.31-.009 3.455-.008l6.564.003 5.956-.003c.966 0 1.97-.055 2.933.006.197.012.42.067.57.203.13.12.186.329.212.495.05.339.02.71.02 1.053l-.009 1.947c-.476.766-.998 1.511-1.5 2.263.045-.504.014-1.029.014-1.536V1.601c-5.711.005-11.43.057-17.14-.003-.058 2.336-.005 4.687-.005 7.025l.003 12.921 7.698-.003 2.383-.004c.441-.001.91-.032 1.348.023-.162.503-.471 1.008-.711 1.482l-7.934-.017-2.39-.001c-.544 0-1.11-.025-1.65.054a2.6 2.6 0 0 0-1.265.546c-.444.355-.767.868-.814 1.438-.04.501.158.985.484 1.364.306.355.777.624 1.24.711.68.128 1.687.038 2.402.04l4.854.004c.903 0 1.822-.037 2.722.028-.16.467-.306.973-.397 1.457-.814-.072-1.68-.013-2.502-.013l-4.861-.001c-.846.002-1.81.099-2.635-.078-.58-.124-1.124-.426-1.577-.798C.57 27.176.11 26.251.035 25.32c-.042-.52-.011-1.06-.01-1.581l.002-2.533v-8.76L.025 6.372c0-.781-.074-2.155.033-2.892.1-.732.413-1.418.903-1.977A4.25 4.25 0 0 1 3.833.031M3.38 1.665c-.804.326-1.394.735-1.737 1.55-.118.282-.15.63-.16.932-.05 1.487-.003 2.991-.002 4.48v8.594l.001 3.81c0 .43-.08 1.02.015 1.43l.035.013.053-.035c.606-.448 1.12-.693 1.865-.848-.058-2.124-.008-4.264-.005-6.389.002-2.388-.04-4.781-.012-7.17a296 296 0 0 0 .01-4.687c0-.376.062-1.356-.012-1.665z"/></svg>